name C:/MyDriveSym/Projects/mobilecap/Data\Session20210820_0001\mocap\ForceDataProcessed\DJAsym1_forces.mot
datacolumns 28
datarows 13
range 1.35450000 1.36050000
endheader 
time	R_ground_force_vx	R_ground_force_vy	R_ground_force_vz	R_ground_force_px	R_ground_force_py	R_ground_force_pz	R_ground_torque_x	R_ground_torque_y	R_ground_torque_z	L_ground_force_vx	L_ground_force_vy	L_ground_force_vz	L_ground_force_px	L_ground_force_py	L_ground_force_pz	L_ground_torque_x	L_ground_torque_y	L_ground_torque_z	3_ground_force_vx	3_ground_force_vy	3_ground_force_vz	3_ground_force_px	3_ground_force_py	3_ground_force_pz	3_ground_torque_x	3_ground_torque_y	3_ground_torque_z	
          1.35450000	       -423.19186300	       1169.95920700	        -98.34564300	         -0.20880700	          0.00600000	         -0.45665900	          0.00000000	          0.10781500	          0.00000000	       -222.61749800	        639.95258900	         34.35843600	         -0.16097500	          0.00600000	         -0.75050600	          0.00000000	          5.91694700	          0.00000000	          0.00000000	          0.00000000	          0.00000000	          0.00000000	          0.00000000	          0.00000000	          0.00000000	          0.00000000	          0.00000000	
          1.35500000	       -421.82718700	       1159.89508600	        -98.94920400	         -0.20777500	          0.00600000	         -0.45658900	          0.00000000	          0.38062500	          0.00000000	       -221.74923200	        636.32244900	         34.71722100	         -0.16091600	          0.00600000	         -0.75031300	          0.00000000	          5.81984700	          0.00000000	          0.00000000	          0.00000000	          0.00000000	          0.00000000	          0.00000000	          0.00000000	          0.00000000	          0.00000000	          0.00000000	
          1.35550000	       -420.17640800	       1150.70267300	        -99.36630500	         -0.20680400	          0.00600000	         -0.45653800	          0.00000000	          0.63764000	          0.00000000	       -220.85165800	        632.84937100	         35.11724000	         -0.16086700	          0.00600000	         -0.75012400	          0.00000000	          5.71894300	          0.00000000	          0.00000000	          0.00000000	          0.00000000	          0.00000000	          0.00000000	          0.00000000	          0.00000000	          0.00000000	          0.00000000	
          1.35600000	       -418.25584900	       1142.36041900	        -99.60539800	         -0.20589500	          0.00600000	         -0.45650400	          0.00000000	          0.87828400	          0.00000000	       -219.92909400	        629.54343500	         35.55899000	         -0.16082800	          0.00600000	         -0.74993900	          0.00000000	          5.61444500	          0.00000000	          0.00000000	          0.00000000	          0.00000000	          0.00000000	          0.00000000	          0.00000000	          0.00000000	          0.00000000	          0.00000000	
          1.35650000	       -416.08285600	       1134.84514500	        -99.67565900	         -0.20504900	          0.00600000	         -0.45648900	          0.00000000	          1.10211400	          0.00000000	       -218.98528700	        626.41423700	         36.04315600	         -0.16080000	          0.00600000	         -0.74975800	          0.00000000	          5.50662800	          0.00000000	          0.00000000	          0.00000000	          0.00000000	          0.00000000	          0.00000000	          0.00000000	          0.00000000	          0.00000000	          0.00000000	
          1.35700000	       -413.67574700	       1128.13213600	        -99.58689900	         -0.20426600	          0.00600000	         -0.45649100	          0.00000000	          1.30880500	          0.00000000	       -218.02330500	        623.47080900	         36.57054400	         -0.16078500	          0.00600000	         -0.74958100	          0.00000000	          5.39586500	          0.00000000	          0.00000000	          0.00000000	          0.00000000	          0.00000000	          0.00000000	          0.00000000	          0.00000000	          0.00000000	          0.00000000	
          1.35750000	       -411.05373400	       1122.19526400	        -99.34946300	         -0.20354600	          0.00600000	         -0.45651000	          0.00000000	          1.49816400	          0.00000000	       -217.04554300	        620.72157800	         37.14191300	         -0.16078200	          0.00600000	         -0.74940800	          0.00000000	          5.28262100	          0.00000000	          0.00000000	          0.00000000	          0.00000000	          0.00000000	          0.00000000	          0.00000000	          0.00000000	          0.00000000	          0.00000000	
          1.35800000	       -408.23677700	       1117.00714600	        -98.97411000	         -0.20288900	          0.00600000	         -0.45654600	          0.00000000	          1.67013200	          0.00000000	       -216.05380200	        618.17432700	         37.75778100	         -0.16079200	          0.00600000	         -0.74924000	          0.00000000	          5.16743600	          0.00000000	          0.00000000	          0.00000000	          0.00000000	          0.00000000	          0.00000000	          0.00000000	          0.00000000	          0.00000000	          0.00000000	
          1.35850000	       -405.24539900	       1112.53932400	        -98.47188500	         -0.20229400	          0.00600000	         -0.45659700	          0.00000000	          1.82477200	          0.00000000	       -215.04942100	        615.83614100	         38.41826400	         -0.16081700	          0.00600000	         -0.74907600	          0.00000000	          5.05087800	          0.00000000	          0.00000000	          0.00000000	          0.00000000	          0.00000000	          0.00000000	          0.00000000	          0.00000000	          0.00000000	          0.00000000	
          1.35900000	       -402.10049400	       1108.76242400	        -97.85396500	         -0.20176000	          0.00600000	         -0.45666400	          0.00000000	          1.96223900	          0.00000000	       -214.03339300	        613.71334500	         39.12293800	         -0.16085600	          0.00600000	         -0.74891700	          0.00000000	          4.93348500	          0.00000000	          0.00000000	          0.00000000	          0.00000000	          0.00000000	          0.00000000	          0.00000000	          0.00000000	          0.00000000	          0.00000000	
          1.35950000	       -398.82315900	       1105.64626400	        -97.13150800	         -0.20128500	          0.00600000	         -0.45674600	          0.00000000	          2.08274900	          0.00000000	       -213.00642500	        611.81146100	         39.87070900	         -0.16091100	          0.00600000	         -0.74876300	          0.00000000	          4.81572000	          0.00000000	          0.00000000	          0.00000000	          0.00000000	          0.00000000	          0.00000000	          0.00000000	          0.00000000	          0.00000000	          0.00000000	
          1.36000000	       -395.43457000	       1103.15992400	        -96.31548500	         -0.20086600	          0.00600000	         -0.45684100	          0.00000000	          2.18658300	          0.00000000	       -211.96892500	        610.13518900	         40.65970700	         -0.16098100	          0.00600000	         -0.74861200	          0.00000000	          4.69794400	          0.00000000	          0.00000000	          0.00000000	          0.00000000	          0.00000000	          0.00000000	          0.00000000	          0.00000000	          0.00000000	          0.00000000	
          1.36050000	       -391.95587500	       1101.27179600	        -95.41656300	         -0.20050100	          0.00600000	         -0.45694800	          0.00000000	          2.27410800	          0.00000000	       -210.92090900	        608.68839700	         41.48726400	         -0.16106700	          0.00600000	         -0.74846600	          0.00000000	          4.58043400	          0.00000000	          0.00000000	          0.00000000	          0.00000000	          0.00000000	          0.00000000	          0.00000000	          0.00000000	          0.00000000	          0.00000000	
